<svg xmlns="http://www.w3.org/2000/svg" viewBox="0 0 200 160" width="200" height="160">
  <!-- Tsyne Bridge Logo with Text - Inspired by the Tyne Bridge -->
  <defs>
    <!-- Gradient for the main arch -->
    <linearGradient id="archGradientFull" x1="0%" y1="0%" x2="100%" y2="0%">
      <stop offset="0%" style="stop-color:#3178C6" /> <!-- TypeScript blue -->
      <stop offset="50%" style="stop-color:#00ADD8" /> <!-- Go cyan -->
      <stop offset="100%" style="stop-color:#3178C6" /> <!-- TypeScript blue -->
    </linearGradient>
    <!-- Gradient for towers -->
    <linearGradient id="towerGradientFull" x1="0%" y1="100%" x2="0%" y2="0%">
      <stop offset="0%" style="stop-color:#2D5A8A" />
      <stop offset="100%" style="stop-color:#4A90C2" />
    </linearGradient>
    <!-- Text gradient -->
    <linearGradient id="textGradient" x1="0%" y1="0%" x2="100%" y2="0%">
      <stop offset="0%" style="stop-color:#3178C6" />
      <stop offset="100%" style="stop-color:#00ADD8" />
    </linearGradient>
  </defs>

  <!-- Water reflection effect -->
  <ellipse cx="100" cy="100" rx="85" ry="8" fill="#1a365d" opacity="0.3"/>

  <!-- Main arch - iconic Tyne Bridge shape -->
  <path d="M 20,80
           Q 20,25 100,20
           Q 180,25 180,80"
        fill="none"
        stroke="url(#archGradientFull)"
        stroke-width="8"
        stroke-linecap="round"/>

  <!-- Secondary inner arch for depth -->
  <path d="M 30,80
           Q 30,35 100,30
           Q 170,35 170,80"
        fill="none"
        stroke="url(#archGradientFull)"
        stroke-width="3"
        stroke-linecap="round"
        opacity="0.5"/>

  <!-- Left tower (Art Deco style) -->
  <rect x="12" y="50" width="16" height="35" rx="2" fill="url(#towerGradientFull)"/>
  <rect x="14" y="45" width="12" height="8" rx="1" fill="url(#towerGradientFull)"/>
  <rect x="16" y="40" width="8" height="7" rx="1" fill="#3178C6"/>

  <!-- Right tower (Art Deco style) -->
  <rect x="172" y="50" width="16" height="35" rx="2" fill="url(#towerGradientFull)"/>
  <rect x="174" y="45" width="12" height="8" rx="1" fill="url(#towerGradientFull)"/>
  <rect x="176" y="40" width="8" height="7" rx="1" fill="#00ADD8"/>

  <!-- Road deck -->
  <rect x="20" y="78" width="160" height="6" rx="1" fill="#4A5568"/>

  <!-- Suspension cables from arch to deck -->
  <g stroke="#5A8BC2" stroke-width="1.5" opacity="0.7">
    <line x1="40" y1="45" x2="40" y2="78"/>
    <line x1="60" y1="33" x2="60" y2="78"/>
    <line x1="80" y1="27" x2="80" y2="78"/>
    <line x1="100" y1="24" x2="100" y2="78"/>
    <line x1="120" y1="27" x2="120" y2="78"/>
    <line x1="140" y1="33" x2="140" y2="78"/>
    <line x1="160" y1="45" x2="160" y2="78"/>
  </g>

  <!-- Small decorative elements on towers -->
  <circle cx="20" cy="55" r="2" fill="#fff" opacity="0.6"/>
  <circle cx="180" cy="55" r="2" fill="#fff" opacity="0.6"/>

  <!-- TSYNE text -->
  <text x="100" y="135"
        font-family="'Segoe UI', 'Helvetica Neue', Arial, sans-serif"
        font-size="32"
        font-weight="700"
        letter-spacing="6"
        text-anchor="middle"
        fill="url(#textGradient)">TSYNE</text>

  <!-- Tagline -->
  <text x="100" y="152"
        font-family="'Segoe UI', 'Helvetica Neue', Arial, sans-serif"
        font-size="9"
        font-weight="400"
        letter-spacing="2"
        text-anchor="middle"
        fill="#718096">TYPESCRIPT + FYNE</text>
</svg>
